<svg xmlns="http://www.w3.org/2000/svg" width="107.02" height="107.02" viewBox="0 0 107.02 107.02">
  <g id="icon-2" transform="translate(-906.934 -1247.046)">
    <path id="Pfad_21" data-name="Pfad 21" d="M0,0H107.02V107.02H0Z" transform="translate(906.934 1247.046)" fill="none"/>
    <path id="Pfad_22" data-name="Pfad 22" d="M46.592,2A44.592,44.592,0,1,0,91.183,46.592,44.608,44.608,0,0,0,46.592,2ZM42.132,81.953A35.622,35.622,0,0,1,10.918,46.592a36.2,36.2,0,0,1,.936-7.982L33.214,59.969v4.459a8.945,8.945,0,0,0,8.918,8.918ZM72.9,70.626a8.847,8.847,0,0,0-8.472-6.2H59.969V51.051a4.472,4.472,0,0,0-4.459-4.459H28.755V37.673h8.918a4.472,4.472,0,0,0,4.459-4.459V24.3h8.918a8.945,8.945,0,0,0,8.918-8.918V13.549A35.594,35.594,0,0,1,72.9,70.626Z" transform="translate(913.852 1253.965)" fill="#fff"/>
  </g>
</svg>
