<svg xmlns="http://www.w3.org/2000/svg" width="106.939" height="106.939" viewBox="0 0 106.939 106.939">
  <g id="icon-1" transform="translate(-355 -1247.061)">
    <path id="Pfad_13" data-name="Pfad 13" d="M82.2,9.912H77.749V1H68.837V9.912H24.279V1H15.367V9.912H10.912A8.938,8.938,0,0,0,2,18.823V90.116a8.938,8.938,0,0,0,8.912,8.912H82.2a8.938,8.938,0,0,0,8.912-8.912V18.823A8.938,8.938,0,0,0,82.2,9.912Zm0,80.2H10.912V32.191H82.2Z" transform="translate(361.912 1250.517)" fill="#fff"/>
    <path id="Pfad_14" data-name="Pfad 14" d="M0,0H106.939V106.939H0Z" transform="translate(355 1247.061)" fill="none"/>
  </g>
</svg>
